<?xml version="1.0" encoding="UTF-8"?>
<svg version="1.1" viewBox="0 0 1600 1600" width="1280" height="1280" xmlns="http://www.w3.org/2000/svg">
<path transform="translate(372 61.9)" d="m0 0c1.51-0.00165 3.03-0.00374 4.54-0.00622 4.15-0.00553 8.29-0.0049 12.4-0.00322 4.52 7.34e-4 9.03-0.0043 13.5-0.00858 8.95-0.00756 17.9-0.00977 26.9-0.0103 10.7-9.15e-4 21.4-0.00759 32.2-0.0143 25.9-0.016 51.8-0.022 77.8-0.0267 12.3-0.00234 24.5-0.00594 36.8-0.0097 42-0.0128 84-0.0236 126-0.027 2.64-2.22e-4 5.27-4.43e-4 7.91-6.65e-4 2.64-2.21e-4 5.29-4.41e-4 7.93-6.61e-4 5.3-4.43e-4 10.6-8.9e-4 15.9-0.00134 1.31-1.09e-4 2.63-2.19e-4 3.98-3.31e-4 42.6-0.00363 85.2-0.0195 128-0.0429 45.1-0.0246 90.1-0.0383 135-0.0395 4.95-1.71e-4 9.9-3.87e-4 14.9-6.34e-4 1.22-5.58e-5 2.44-1.12e-4 3.69-1.69e-4 19.6-0.00115 39.2-0.0122 58.8-0.0267 19.7-0.0144 39.4-0.0176 59.1-0.00956 11.7 0.00444 23.4 6.5e-4 35.1-0.0152 7.83-0.0098 15.7-0.00852 23.5 0.00144 4.45 0.00536 8.9 0.00622 13.3-0.00651 36.1-0.0967 69.9 3.05 104 17.4 1.21 0.516 1.21 0.516 2.45 1.04 19.1 8.27 35.8 19.4 51.6 33 0.91 0.78 1.82 1.56 2.76 2.36 2.46 2.17 4.86 4.38 7.24 6.64 0.485 0.452 0.97 0.905 1.47 1.37 13.4 12.5 24 27 33.5 42.6 0.466 0.747 0.931 1.49 1.41 2.26 3.63 5.91 6.75 11.9 9.59 18.2 0.646 1.44 0.646 1.44 1.31 2.9 16 36.3 18.2 73 18.1 112-0.00768 5.52 0.0022 11 0.00973 16.6 0.0108 9.65 0.0105 19.3 0.00286 28.9-0.0108 13.7-0.00639 27.4 0.00234 41 0.0158 24.8 0.017 49.6 0.00856 74.5-2.48e-4 0.734-4.97e-4 1.47-7.53e-4 2.22-2.49e-4 0.735-4.98e-4 1.47-7.54e-4 2.23-0.00758 22.4-0.00952 44.9-0.00593 67.3 2.32e-4 1.5 4.64e-4 3.01 6.94e-4 4.51 9.31e-4 6.05 0.00189 12.1 0.00288 18.1 0.00275 16.9 0.00446 33.8 0.00536 50.7 4.09e-5 0.769 8.19e-5 1.54 1.24e-4 2.33 0.00123 24.5-0.00215 49-0.00867 73.5-2.11e-4 0.794-4.21e-4 1.59-6.39e-4 2.41-0.00343 12.9-0.00709 25.8-0.0108 38.7-0.0146 51.1-0.0139 102 6.92e-4 153 0.00366 12.9 0.0073 25.8 0.0107 38.7 3.17e-4 1.19 3.17e-4 1.19 6.4e-4 2.41 0.00647 24.5 0.00921 49 0.00791 73.4-6.11e-5 1.15-6.11e-5 1.15-1.23e-4 2.33-9.38e-4 16.9-0.00284 33.8-0.00561 50.6-9.87e-4 6.04-0.00193 12.1-0.00285 18.1-2.32e-4 1.5-4.68e-4 3.01-7.09e-4 4.51-0.00358 22.4-5.42e-4 44.8 0.00705 67.3 3.73e-4 1.1 3.73e-4 1.1 7.53e-4 2.22 2.48e-4 0.733 4.96e-4 1.47 7.52e-4 2.22 0.00829 24.8 0.0052 49.5-0.0106 74.3-0.00887 14.3-0.0094 28.5 0.00194 42.8 0.00675 9.53 0.00251 19.1-0.0105 28.6-0.00711 5.43-0.00963 10.9 0.00122 16.3 0.0935 50.4 0.0935 50.4-6.08 73.4-0.256 0.978-0.511 1.96-0.775 2.96-10.2 37.8-29.7 69.8-56.5 97.9-0.674 0.727-1.35 1.45-2.04 2.2-37 38.8-93.2 58.4-146 59.9-9.77 0.172-19.5 0.161-29.3 0.145-4.45-0.00513-8.91 0.00147-13.4 0.00649-7.79 0.00718-15.6 0.00703-23.4 0.00191-11.6-0.0076-23.2-0.00368-34.7 0.00242-20.7 0.0105-41.4 0.00963-62 0.00384-18.1-0.00504-36.2-0.00634-54.3-0.00395-1.8 2.29e-4 -1.8 2.29e-4 -3.64 4.63e-4 -4.88 6.23e-4 -9.76 0.00126-14.6 0.00192-45.8 0.00611-91.5 5.79e-4 -137-0.0102-40.6-0.00949-81.2-0.00864-122 9.22e-4 -45.7 0.0107-91.4 0.015-137 0.00878-4.87-6.41e-4 -9.75-0.00127-14.6-0.00189-1.2-1.58e-4 -2.4-3.16e-4 -3.64-4.79e-4 -18.1-0.00227-36.2 3.78e-4 -54.3 0.00544-20.6 0.00573-41.1 0.00427-61.7-0.00656-11.5-0.00586-23-0.00628-34.5 0.00129-7.7 0.00451-15.4 0.00166-23.1-0.00701-4.38-0.00473-8.75-0.00645-13.1 8.12e-4 -41.6 0.0638-79.8-3.61-118-22.3-0.739-0.358-1.48-0.716-2.24-1.09-20.6-10.1-38.1-24.3-54.8-39.9l-2-1.87c-4.65-4.49-8.73-9.43-12.7-14.5-0.876-1.11-1.76-2.21-2.65-3.31-13.6-16.9-24-36-31.6-56.3-0.411-1.09-0.411-1.09-0.83-2.19-3.35-8.98-5.85-18.1-7.92-27.4-0.199-0.893-0.398-1.79-0.602-2.71-3.06-14.5-3.94-28.7-3.9-43.5-0.00239-1.86-0.00566-3.72-0.00972-5.59-0.00858-5.1-0.00481-10.2 0.00106-15.3 0.00418-5.55-0.00324-11.1-0.00915-16.7-0.00875-9.73-0.0101-19.5-0.0065-29.2 0.00506-13.8-1.18e-5 -27.6-0.00792-41.4-0.0156-27.3-0.0183-54.5-0.0158-81.8 3.38e-4 -3.76 6.61e-4 -7.53 9.66e-4 -11.3 6.1e-5 -0.748 1.22e-4 -1.5 1.85e-4 -2.27 0.00127-16.6-0.00133-33.2-0.00471-49.8-7.71e-4 -3.79-0.00152-7.58-0.00227-11.4-3.02e-4 -1.52-6.04e-4 -3.04-9.06e-4 -4.56-1.5e-4 -0.754-2.99e-4 -1.51-4.54e-4 -2.28-3.04e-4 -1.52-6.08e-4 -3.05-9.14e-4 -4.57-0.00867-43.3-0.0133-86.5-0.00905-130 7.81e-5 -0.801 1.56e-4 -1.6 2.37e-4 -2.43 8.73e-4 -8.93 0.0018-17.9 0.00275-26.8 8.55e-5 -0.806 1.71e-4 -1.61 2.59e-4 -2.44 7.11e-4 -6.7 7.11e-4 -6.7 0.00104-9.78 0.00553-51.6-2e-3 -103-0.0208-155-0.00472-13-0.0094-26-0.0138-39-2.73e-4 -0.8-5.47e-4 -1.6-8.28e-4 -2.42-0.00837-24.7-0.0131-49.3-0.0139-74-3.95e-5 -1.16-3.95e-5 -1.16-7.99e-5 -2.35-5.41e-4 -17-1.68e-4 -34 0.00104-51 4.26e-4 -6.09 7.91e-4 -12.2 0.00113-18.3 8.53e-5 -1.51 1.74e-4 -3.03 2.67e-4 -4.54 0.00145-24.1-0.00567-48.2-0.017-72.3-0.0117-24.9-0.0122-49.9-1.57e-4 -74.8 0.00671-14.4 5e-3 -28.7-0.00859-43.1-0.00825-9.61-0.00554-19.2 0.00598-28.8 0.00625-5.47 0.00787-10.9-0.00386-16.4-0.0974-48.7-0.0974-48.7 6.07-70.8 0.38-1.4 0.38-1.4 0.768-2.84 9.68-34.7 26.9-66.2 52-92.1 1.54-1.59 3.06-3.2 4.57-4.81 8.23-8.62 17.3-15.8 27-22.8 0.932-0.675 0.932-0.675 1.88-1.36 35.7-25.6 78.7-37.8 122-37.8zm-65.2 149c-0.611 0.538-1.22 1.08-1.85 1.63-14.5 13.2-22.5 34.3-25.1 53.4-0.09 2.53-0.136 5.03-0.128 7.56-0.00165 0.746-0.0033 1.49-5e-3 2.26-0.00432 2.51-0.00152 5.01 0.00123 7.52-0.00165 1.82-0.00374 3.64-0.00622 5.46-0.00558 5.02-0.00489 10-0.00322 15.1 7.3e-4 5.46-0.00429 10.9-0.00858 16.4-0.00759 10.8-0.00977 21.7-0.0103 32.5-9.13e-4 13-0.00758 25.9-0.0143 38.9-0.0158 30.6-0.0217 61.2-0.0264 91.9-0.00238 15.6-0.00609 31.2-0.01 46.7-0.0127 50-0.0234 99.9-0.0268 150-1.62e-4 2.39-3.28e-4 4.78-4.94e-4 7.17-3.34e-4 4.79-6.64e-4 9.58-9.95e-4 14.4-3.87e-4 5.61-7.77e-4 11.2-0.00117 16.8-1.12e-4 1.61-2.24e-4 3.21-3.34e-4 4.82-0.00355 51.5-0.0186 103-0.0419 155-0.0167 37-0.0322 74.1-0.0367 111-9.35e-5 0.762-1.87e-4 1.52-2.83e-4 2.31-0.00202 16.7-0.00318 33.5-0.00353 50.2-1.36e-4 5.99-3.45e-4 12-5.93e-4 18-6.16e-5 1.49-1.2e-4 2.98-1.75e-4 4.47-9.19e-4 23.7-0.0109 47.4-0.0255 71.1-0.015 24.6-0.0192 49.1-0.0109 73.7 0.00446 14.2 5.87e-4 28.3-0.0152 42.5-0.00974 9.46-0.00858 18.9 0.00144 28.4 0.0054 5.39 0.00609 10.8-0.00651 16.2-0.0114 4.91-0.00877 9.82 0.00467 14.7 0.00242 1.76-1.03e-4 3.52-0.0084 5.27-0.125 28.5 7.55 53.1 28 73.8 14.9 14 33 23.1 53.4 25.4 1.11 0.128 1.11 0.128 2.24 0.259 7.4 0.799 14.8 0.926 22.2 0.899 1.48 0.00209 2.95 0.00506 4.43 0.00881 4.02 0.00771 8.05 0.00317 12.1-0.00356 4.39-0.00511 8.78 0.00146 13.2 0.00649 7.68 0.0072 15.4 0.00702 23 0.00191 11.4-0.00758 22.9-0.00369 34.3 0.00242 20.4 0.0105 40.8 0.00962 61.2 0.00384 17.9-0.00503 35.7-0.00634 53.6-0.00395 1.19 1.53e-4 2.37 3.06e-4 3.59 4.63e-4 4.81 6.23e-4 9.63 0.00126 14.4 0.00192 45.1 0.00612 90.3 5.74e-4 135-0.0102 40.1-0.00949 80.2-0.00864 120 9.22e-4 45.1 0.0107 90.1 0.015 135 0.00878 4.8-6.41e-4 9.61-0.00127 14.4-0.00189 1.18-1.58e-4 2.37-3.16e-4 3.58-4.79e-4 17.8-0.00227 35.7 3.82e-4 53.5 0.00544 20.3 0.00572 40.6 0.00428 60.9-0.00656 11.4-0.00586 22.7-0.00627 34.1 0.00129 7.59 0.0045 15.2 0.00167 22.8-0.00701 4.32-0.00474 8.64-0.00642 13 8.12e-4 37.8 0.0584 68.8-2.33 97.2-29.7 20-20.8 25-47.5 24.9-75.3 0.00283-1.82 0.00698-3.65 0.0123-5.47 0.0108-4.98 0.00307-9.96-0.00783-14.9-0.00855-5.43 3.97e-4 -10.9 0.00706-16.3 0.00928-9.51 0.00745-19-0.00173-28.5-0.0136-14.1-0.01-28.3-0.00304-42.4 0.0112-23.8 0.00828-47.6-0.00317-71.4-0.0113-23.6-0.0173-47.1-0.0158-70.7 8.54e-5 -1.48 1.7e-4 -2.96 2.55e-4 -4.44 3.48e-4 -5.95 7.33e-4 -11.9 0.00117-17.9 0.00119-16.6 0.00138-33.3 7.97e-4 -49.9-3.9e-5 -1.14-3.9e-5 -1.14-7.89e-5 -2.3-8.98e-4 -24.1-0.00619-48.3-0.0146-72.4-2.73e-4 -0.782-5.46e-4 -1.56-8.28e-4 -2.37-0.00445-12.7-0.00917-25.4-0.0139-38.1-0.0187-50.4-0.0252-101-0.0196-151 3.47e-4 -3.19 6.93e-4 -6.37 0.00104-9.56 8.56e-5 -0.788 1.71e-4 -1.58 2.59e-4 -2.39 9.46e-4 -8.72 0.00186-17.4 0.00273-26.2 7.89e-5 -0.782 1.58e-4 -1.56 2.39e-4 -2.37 0.00422-42.2-0.00108-84.5-0.00975-127-3.03e-4 -1.49-6.06e-4 -2.98-9.09e-4 -4.47-1.5e-4 -0.736-2.99e-4 -1.47-4.53e-4 -2.23-3.01e-4 -1.49-6.02e-4 -2.97-9.03e-4 -4.46-7.49e-4 -3.7-0.0015-7.4-0.00228-11.1-0.00335-16.2-0.00542-32.4-0.00406-48.6 6.05e-5 -0.73 1.21e-4 -1.46 1.83e-4 -2.21 3.12e-4 -3.68 6.45e-4 -7.35 9.86e-4 -11 0.00245-26.6-0.00162-53.2-0.0172-79.7-0.00805-14.1-0.0106-28.1-0.00536-42.2 0.00297-9.39-0.00132-18.8-0.0115-28.2-0.00563-5.35-0.00812-10.7-0.00183-16 0.00566-4.87 0.00206-9.74-0.0088-14.6-0.0023-1.75-0.00129-3.49 0.00352-5.24 0.0685-26.9-5.51-52.5-24.9-72.4-1.45-1.44-2.92-2.86-4.38-4.28-0.726-0.745-1.45-1.49-2.2-2.26-23.8-23.1-56.4-23.2-87.4-23.1-4.45 0.00767-8.91-0.00219-13.4-0.00973-7.79-0.0108-15.6-0.0105-23.4-0.00286-11.6 0.0114-23.2 0.00553-34.8-0.00362-20.7-0.0158-41.4-0.0144-62.1-0.00576-18.1 0.00755-36.2 0.00951-54.3 0.00593-1.8-3.44e-4 -1.8-3.44e-4 -3.64-6.94e-4 -4.88-9.34e-4 -9.76-0.00189-14.6-0.00288-45.8-0.00917-91.5-8.64e-4 -137 0.0153-40.6 0.0142-81.3 0.013-122-0.00138-45.7-0.0161-91.4-0.0224-137-0.0132-4.87 9.62e-4 -9.74 0.0019-14.6 0.00283-1.2 2.37e-4 -2.4 4.74e-4 -3.63 7.19e-4 -18.1 0.00341-36.2-5.74e-4 -54.3-0.00816-20.6-0.00858-41.2-0.00643-61.7 0.00984-11.5 0.0088-23 0.00939-34.5-0.00194-7.7-0.00674-15.4-0.00252-23.1 0.0105-4.38 0.00712-8.76 0.00961-13.1-0.00122-4-0.00977-7.99-0.00546-12 0.00954-1.43 0.00299-2.85 0.0011-4.28-0.00662-27.7-0.139-50.6 8.03-70.5 27.4z" fill="#000002"/>
<path transform="translate(1148 337)" d="m0 0c14.7 10.9 21.5 26.5 24.3 44.2 1.62 16-4.23 31.6-14 44-1.18 1.52-1.18 1.52-2.38 3.06-4.51 5.68-4.51 5.68-6.62 7.94h-2c-0.268 0.59-0.536 1.18-0.812 1.79-1.2 2.23-2.45 3.77-4.2 5.6-0.59 0.623-1.18 1.25-1.79 1.89-0.935 0.976-0.935 0.976-1.89 1.97-1.28 1.35-2.56 2.7-3.84 4.06-0.608 0.643-1.22 1.29-1.84 1.95-2.4 2.56-4.71 5.2-7 7.86-2.02 2.32-4.08 4.6-6.14 6.89-2.65 2.94-5.28 5.89-7.88 8.88-3.45 3.97-7.01 7.83-10.6 11.7-3.13 3.41-6.21 6.87-9.24 10.4-3.09 3.51-6.25 6.95-9.41 10.4-1.97 2.18-3.92 4.37-5.84 6.59-2.96 3.41-6 6.74-9.06 10.1-7.7 8.14-7.7 8.14-14.5 17h-2c-0.272 0.595-0.545 1.19-0.825 1.8-1.14 2.14-2.3 3.62-3.97 5.37-0.544 0.578-1.09 1.16-1.65 1.75-0.576 0.603-1.15 1.21-1.75 1.83-1.19 1.26-2.38 2.52-3.56 3.79-0.567 0.602-1.13 1.2-1.72 1.82-2.32 2.49-4.55 5.05-6.77 7.63-3.17 3.62-6.46 7.15-9.72 10.7-2.05 2.14-2.05 2.14-3.04 4.32h-2c-0.272 0.595-0.545 1.19-0.825 1.8-1.14 2.14-2.3 3.62-3.97 5.37-0.544 0.578-1.09 1.16-1.65 1.75-0.576 0.603-1.15 1.21-1.75 1.83-1.19 1.26-2.38 2.53-3.57 3.79-0.567 0.602-1.13 1.2-1.72 1.83-2.31 2.47-4.52 5.03-6.73 7.59-1.88 2.14-3.8 4.22-5.74 6.31-4.07 4.39-8 8.82-11.7 13.5-3.26 4.05-6.68 7.73-10.4 11.4-1.92 1.92-3.7 3.9-5.46 5.96-11.4 13.1-24.8 22-42.4 23.9-23.8 1.41-40.3-8.58-59.6-21.4-3.59-2.38-7.2-4.72-10.8-7.06-0.68-0.44-1.36-0.88-2.06-1.33-8.55-5.52-17.1-11-25.7-16.4-4.61-2.93-9.22-5.86-13.8-8.8-1.83-1.17-3.67-2.33-5.5-3.5-3.67-2.33-7.33-4.67-11-7-0.907-0.577-1.81-1.15-2.75-1.75-1.84-1.17-3.67-2.34-5.51-3.5-4.55-2.89-9.09-5.78-13.6-8.68-9.71-6.17-19.4-12.4-29.1-18.6-10.7-6.82-21.3-13.6-32-20.4-2.44-1.55-4.88-3.12-7.32-4.68-1.46-0.927-2.91-1.85-4.37-2.78-0.654-0.423-1.31-0.847-1.98-1.28-3.62-2.32-3.62-2.32-7.83-2.84-0.66 0.99-1.32 1.98-2 3h-2c-0.263 0.59-0.527 1.18-0.798 1.79-1.25 2.31-2.55 3.78-4.43 5.6-0.951 0.934-0.951 0.934-1.92 1.89-0.672 0.651-1.34 1.3-2.04 1.97-1.38 1.36-2.76 2.72-4.14 4.08-0.62 0.607-1.24 1.21-1.88 1.84-2.39 2.43-4.6 5-6.8 7.61-3.63 4.03-7.54 7.79-11.4 11.6-3.13 3.08-6.14 6.2-9 9.54-4.68 5.42-9.82 10.4-14.9 15.4-4.15 4.11-8.09 8.29-11.9 12.7-3.93 4.42-8.24 8.5-12.5 12.6-4.05 4.01-7.9 8.11-11.6 12.4-3.29 3.73-6.89 7.15-10.4 10.6-3.02 2.98-5.9 6-8.67 9.21-3.75 4.35-7.79 8.37-11.9 12.4-1.42 1.39-2.83 2.78-4.24 4.18-0.615 0.604-1.23 1.21-1.86 1.83-1.78 1.8-1.78 1.8-3.58 4.68h-2c-0.262 0.585-0.524 1.17-0.793 1.77-8.03 14.8-25.7 25.4-41.2 30.2-16.4 4.22-32 1.81-47-6-3.26-2.09-6.14-4.39-9-7-0.686-0.606-1.37-1.21-2.08-1.84-8.43-7.89-13.6-17.2-16.9-28.2-0.412-1.22-0.825-2.43-1.25-3.69-3.47-15.4 0.338-31.6 8.09-45.1 3.63-5.33 7.98-9.86 12.5-14.5 2.33-2.4 4.58-4.86 6.85-7.31 5.62-6.1 11.4-12.1 17.3-17.8 2.74-2.7 5.33-5.46 7.84-8.38 4.71-5.45 9.88-10.4 15-15.5 4.17-4.13 8.14-8.33 12-12.8 2.88-3.25 5.98-6.27 9.08-9.3 1.24-1.21 2.48-2.43 3.71-3.65 0.537-0.525 1.07-1.05 1.63-1.59 1.4-1.38 1.4-1.38 2.29-3.39h2c0.25-0.577 0.5-1.15 0.757-1.75 1.42-2.57 3.03-4.25 5.13-6.3 1.16-1.14 1.16-1.14 2.35-2.31 0.81-0.789 1.62-1.58 2.46-2.39 5.04-4.93 9.93-9.89 14.5-15.2 3.36-3.78 6.99-7.28 10.6-10.8 1.51-1.48 3.02-2.97 4.52-4.46 0.986-0.968 0.986-0.968 1.99-1.96 1.86-1.87 1.86-1.87 3.68-4.77h2c0.263-0.59 0.527-1.18 0.798-1.79 1.25-2.31 2.55-3.78 4.43-5.6 0.634-0.623 1.27-1.25 1.92-1.89 0.672-0.651 1.34-1.3 2.03-1.97 1.38-1.36 2.76-2.71 4.13-4.07 0.619-0.607 1.24-1.21 1.88-1.84 2.41-2.46 4.65-5.05 6.87-7.68 3.4-3.79 7.06-7.32 10.7-10.9 2.97-2.93 5.82-5.9 8.54-9.05 23.4-27 23.4-27 38.7-33.2 1.08-0.442 2.15-0.884 3.26-1.34 14.8-5.09 32.5-4.51 46.6 2.24 9.3 4.72 18 10.5 26.7 16.2 4.5 2.95 9.04 5.82 13.6 8.69 9.68 6.1 19.3 12.2 29 18.4 2.87 1.83 5.75 3.66 8.63 5.49 16 10.2 16 10.2 23.4 14.9 5.35 3.45 10.7 6.86 16.1 10.2 6.02 3.8 12 7.62 18 11.5 6.44 4.18 12.9 8.32 19.4 12.4 0.916 0.582 1.83 1.16 2.77 1.76 4.86 3.09 9.72 6.17 14.6 9.25 0.987 0.625 1.97 1.25 2.99 1.9 1.88 1.19 3.76 2.38 5.64 3.57 1.29 0.815 1.29 0.815 2.6 1.65 0.809 0.513 1.62 1.03 2.45 1.56 2.13 1.41 4.13 2.91 6.15 4.47 2.79 2.28 2.79 2.28 5.13 1.84 2.24-0.904 3.32-1.83 4.94-3.61 0.8-0.866 0.8-0.866 1.62-1.75 0.832-0.93 0.832-0.93 1.68-1.88 0.863-0.946 0.863-0.946 1.74-1.91 3.93-4.34 7.67-8.81 11.2-13.5 2.1-2.58 4.41-4.84 6.78-7.18 2.31-2.42 4.59-4.86 6.88-7.31 0.624-0.669 1.25-1.34 1.89-2.03 3.6-3.87 7.15-7.77 10.6-11.8 2.02-2.32 4.08-4.6 6.14-6.89 2.65-2.94 5.28-5.89 7.88-8.88 2.49-2.87 5.05-5.67 7.63-8.45 0.473-0.511 0.947-1.02 1.43-1.55 0.47-0.507 0.941-1.01 1.43-1.54 3.77-4.1 7.22-8.38 10.6-12.8 0.514-0.583 1.03-1.17 1.56-1.77h2c0.268-0.59 0.536-1.18 0.812-1.79 1.2-2.23 2.45-3.77 4.2-5.6 0.589-0.623 1.18-1.25 1.79-1.89 0.624-0.651 1.25-1.3 1.89-1.97 1.28-1.35 2.56-2.71 3.84-4.07 0.608-0.643 1.22-1.29 1.84-1.95 2.36-2.51 4.61-5.1 6.86-7.71 2.38-2.71 4.82-5.37 7.27-8.02 3.62-3.93 7.19-7.9 10.7-11.9 2.24-2.55 4.52-5.05 6.81-7.56 2.86-3.14 5.71-6.29 8.5-9.5 3.63-4.18 7.36-8.25 11.1-12.3 2-2.21 3.96-4.45 5.91-6.72 1.16-1.32 2.33-2.63 3.5-3.94 0.713-0.803 1.43-1.61 2.16-2.43 22.6-24.1 55.9-25.5 82.6-7.75z" fill="#000002"/>
<path transform="translate(525 859)" d="m0 0c1.45-0.00308 1.45-0.00308 2.93-0.00622 3.25-0.00567 6.5-0.00421 9.75-0.00279 2.35-0.00258 4.7-0.0056 7.04-9e-3 5.78-0.00723 11.6-0.00977 17.4-0.0103 6.93-9.14e-4 13.9-0.00758 20.8-0.0143 16.7-0.0161 33.5-0.022 50.2-0.0267 7.92-0.00234 15.8-0.00594 23.8-0.0097 27.1-0.0128 54.2-0.0236 81.4-0.027 1.7-2.22e-4 3.4-4.43e-4 5.11-6.65e-4 1.71-2.21e-4 3.41-4.41e-4 5.12-6.61e-4 3.42-4.43e-4 6.85-8.9e-4 10.3-0.00134 1.27-1.64e-4 1.27-1.64e-4 2.57-3.31e-4 27.5-0.00363 55-0.0196 82.6-0.0429 29.1-0.0246 58.2-0.0383 87.3-0.0395 3.2-1.71e-4 6.39-3.87e-4 9.59-6.34e-4 1.18-8.37e-5 1.18-8.37e-5 2.38-1.69e-4 12.7-0.00115 25.3-0.0122 38-0.0267 12.7-0.0144 25.4-0.0176 38.2-0.00956 6.89 0.00406 13.8 0.00336 20.7-0.0111 6.31-0.0127 12.6-0.0116 18.9 5.91e-4 2.28 0.00196 4.56-0.00114 6.84-0.00984 21.4-0.0763 38.2 2.82 54 18.5 11.7 12.7 17.2 28.8 17 45.9-1.46 18.5-9.91 32.8-23.4 44.9-13.7 10.9-29.7 13.3-46.7 13.2-1.41 0.00263-1.41 0.00263-2.86 0.00531-3.15 0.00464-6.29 0.0022-9.44-2.34e-4 -2.28 0.00187-4.57 0.00417-6.85 0.00687-6.27 0.00611-12.5 0.00599-18.8 0.00481-6.07-1.83e-4 -12.1 0.00431-18.2 0.00861-13.9 0.00966-27.9 0.0125-41.8 0.0131-10.8 4.6e-4 -21.5 0.00252-32.3 0.0057-3.1 8.98e-4 -6.2 0.00179-9.3 0.00267-0.771 2.21e-4 -1.54 4.42e-4 -2.34 6.7e-4 -21.7 0.00615-43.4 0.0101-65 0.00966-0.817-1.56e-5 -1.63-3.12e-5 -2.48-4.72e-5 -4.14-8.31e-5 -8.28-1.82e-4 -12.4-2.85e-4 -0.822-1.99e-5 -1.64-3.99e-5 -2.49-6.04e-5 -1.66-4.04e-5 -3.33-8.22e-5 -4.99-1.25e-4 -25.9-6.13e-4 -51.7 0.00689-77.6 0.0206-29.1 0.0154-58.2 0.024-87.2 0.023-3.1-7.46e-5 -6.2-1.23e-4 -9.31-1.54e-4 -0.764-1.17e-5 -1.53-2.33e-5 -2.31-3.53e-5 -12.3-3.07e-5 -24.6 0.00635-36.8 0.015-12.3 0.00849-24.7 0.00946-37 0.00289-6.69-0.00337-13.4-0.00332-20.1 0.00535-6.12 0.00786-12.2 0.00644-18.4-0.00228-2.21-0.00154-4.42 2.83e-4 -6.63 0.00586-22.9 0.054-41.5-1.41-59.1-17.8-0.763-0.825-1.53-1.65-2.31-2.5-0.458-0.452-0.915-0.905-1.39-1.37-10.7-11.3-15.1-26.7-15-41.9 0.462-15.2 6.34-28.3 16.4-39.7 0.532-0.615 1.06-1.23 1.61-1.86 11.5-12.4 26.5-17.3 43-17.3z" fill="#000002"/>
<path transform="translate(527 1152)" d="m0 0c1.8-0.00936 1.8-0.00936 3.64-0.0189 3.3-0.0131 6.59-0.00853 9.89 0.00394 3.57 0.00912 7.14-0.00495 10.7-0.0159 6.98-0.0177 14-0.014 20.9-0.00235 5.68 0.00906 11.4 0.0102 17 0.0059 1.22-9.19e-4 1.22-9.19e-4 2.46-0.00186 1.65-0.00128 3.29-0.00258 4.94-0.00389 15.4-0.0114 30.8 0.00168 46.2 0.0232 13.2 0.0179 26.4 0.0148 39.6-0.00368 15.4-0.0214 30.7-0.0298 46.1-0.0176 1.64 0.00127 3.28 0.00253 4.92 0.00377 0.807 6.17e-4 1.61 0.00123 2.45 0.00187 5.67 0.00344 11.3-0.00235 17-0.0118 6.91-0.0113 13.8-0.0081 20.7 0.0131 3.52 0.0105 7.04 0.0147 10.6 0.0014 3.83-0.011 7.66 0.00285 11.5 0.0227 1.1-0.00892 2.19-0.0178 3.32-0.027 15.7 0.157 29.6 6.36 41 17.1 12.6 13 18.9 27.8 18.8 45.9-0.548 16.2-7.24 30.9-18.4 42.5-19.7 17.5-42.3 17.5-67.3 17.4-2.74 0.00242-5.47 0.00931-8.21 0.0159-6.63 0.0133-13.3 0.0105-19.9 0.00176-5.39-0.00681-10.8-0.00768-16.2-0.00443-0.771 4.6e-4 -1.54 9.19e-4 -2.34 0.00139-1.57 9.59e-4 -3.13 0.00193-4.7 0.00292-14.6 0.00853-29.3-0.00124-43.9-0.0174-12.5-0.0134-25.1-0.0111-37.6 0.00276-14.6 0.0161-29.2 0.0224-43.8 0.0132-1.56-9.56e-4 -3.12-0.0019-4.68-0.00283-1.15-6.94e-4 -1.15-6.94e-4 -2.32-0.0014-5.38-0.00258-10.8 0.00176-16.1 0.00884-6.56 0.00846-13.1 0.00605-19.7-0.00984-3.34-0.00783-6.68-0.00943-10-0.00105-23.6 0.0537-44.2-1.12-62.2-18.4-11.7-12.3-17.5-28.5-17.4-45.3 0.463-15.3 6.36-28.2 16.4-39.7 0.498-0.603 0.995-1.21 1.51-1.83 11.3-12.6 28.7-17.8 45.1-17.7z" fill="#000002"/>
</svg>
